<?xml version="1.0" standalone="no"?>
<!DOCTYPE svg PUBLIC "-//W3C//DTD SVG 20010904//EN"
 "http://www.w3.org/TR/2001/REC-SVG-20010904/DTD/svg10.dtd">
<svg version="1.0" xmlns="http://www.w3.org/2000/svg"
 width="75.000000pt" height="75.000000pt" viewBox="0 0 75.000000 75.000000"
 preserveAspectRatio="xMidYMid meet">

<g transform="translate(0.000000,75.000000) scale(0.100000,-0.100000)"
fill="#000000" stroke="none">
<path d="M354 688 c15 -47 12 -52 -31 -59 -23 -4 -52 -13 -65 -20 -27 -14 -98
-80 -98 -91 0 -17 27 -7 51 18 30 32 82 59 132 68 l37 7 -17 -35 c-31 -65 4
-60 37 5 l21 39 -27 45 c-27 48 -51 61 -40 23z"/>
<path d="M440 610 c0 -5 15 -17 33 -26 45 -23 86 -63 108 -107 l20 -37 -41 6
c-52 8 -54 -11 -2 -25 20 -6 44 -11 53 -11 22 0 82 77 67 86 -6 4 -19 -3 -29
-15 -19 -23 -39 -21 -39 3 0 7 -18 33 -40 58 -49 56 -130 98 -130 68z"/>
<path d="M115 485 c-5 -2 -22 -6 -37 -9 -39 -9 -35 -26 6 -26 l33 0 0 -67 c-1
-76 30 -163 57 -163 20 0 20 3 -6 53 -21 42 -31 147 -15 163 4 4 17 -2 30 -14
45 -42 51 -19 10 34 -25 31 -48 39 -78 29z"/>
<path d="M323 474 c-18 -9 -39 -31 -48 -51 -46 -96 53 -194 148 -148 35 16 67
65 67 100 0 34 -32 84 -65 99 -41 20 -61 20 -102 0z m108 -43 c17 -18 29 -40
29 -56 0 -35 -50 -85 -85 -85 -35 0 -85 50 -85 85 0 16 12 38 29 56 18 17 40
29 56 29 16 0 38 -12 56 -29z"/>
<path d="M191 164 c0 -11 3 -14 6 -6 3 7 2 16 -1 19 -3 4 -6 -2 -5 -13z"/>
</g>
</svg>
