<svg version="1.0" xmlns="http://www.w3.org/2000/svg" width="100" height="100" viewBox="0 0 75 75"><path d="M35.4 6.2c1.5 4.7 1.2 5.2-3.1 5.9-2.3.4-5.2 1.3-6.5 2-2.7 1.4-9.8 8-9.8 9.1 0 1.7 2.7.7 5.1-1.8 3-3.2 8.2-5.9 13.2-6.8l3.7-.7-1.7 3.5c-3.1 6.5.4 6 3.7-.5l2.1-3.9-2.7-4.5c-2.7-4.8-5.1-6.1-4-2.3zM44 14c0 .5 1.5 1.7 3.3 2.6 4.5 2.3 8.6 6.3 10.8 10.7l2 3.7-4.1-.6c-5.2-.8-5.4 1.1-.2 2.5 2 .6 4.4 1.1 5.3 1.1 2.2 0 8.2-7.7 6.7-8.6-.6-.4-1.9.3-2.9 1.5C63 29.2 61 29 61 26.6c0-.7-1.8-3.3-4-5.8-4.9-5.6-13-9.8-13-6.8zM11.5 26.5c-.5.2-2.2.6-3.7.9-3.9.9-3.5 2.6.6 2.6h3.3v6.7c-.1 7.6 3 16.3 5.7 16.3 2 0 2-.3-.6-5.3-2.1-4.2-3.1-14.7-1.5-16.3.4-.4 1.7.2 3 1.4 4.5 4.2 5.1 1.9 1-3.4-2.5-3.1-4.8-3.9-7.8-2.9zm20.8 1.1c-1.8.9-3.9 3.1-4.8 5.1-4.6 9.6 5.3 19.4 14.8 14.8 3.5-1.6 6.7-6.5 6.7-10 0-3.4-3.2-8.4-6.5-9.9-4.1-2-6.1-2-10.2 0zm10.8 4.3c1.7 1.8 2.9 4 2.9 5.6 0 3.5-5 8.5-8.5 8.5S29 41 29 37.5c0-1.6 1.2-3.8 2.9-5.6 1.8-1.7 4-2.9 5.6-2.9 1.6 0 3.8 1.2 5.6 2.9zm-24 26.7c0 1.1.3 1.4.6.6.3-.7.2-1.6-.1-1.9-.3-.4-.6.2-.5 1.3z"/></svg>